<svg width="636" height="100" viewBox="0 0 636 100" fill="none" xmlns="http://www.w3.org/2000/svg">
<path d="M636 53.1605C636 58.1321 635.361 62.6243 634.084 66.6371C632.807 70.6143 631.015 74.1655 628.708 77.2905C626.437 80.38 623.723 83.0433 620.565 85.2805C617.407 87.5178 613.947 89.3643 610.186 90.8203C606.425 92.2408 602.415 93.3061 598.157 94.0163C593.935 94.6911 589.588 95.0284 585.117 95.0284C583.45 95.0284 581.817 94.9929 580.221 94.9219C578.624 94.8153 576.992 94.6733 575.324 94.4957L576.814 23.0114C580.717 21.7685 584.727 20.8984 588.843 20.4013C592.995 19.8686 597.111 19.6023 601.191 19.6023C606.265 19.6023 610.931 20.3658 615.189 21.8928C619.447 23.4197 623.12 25.6214 626.207 28.4979C629.294 31.3743 631.689 34.8899 633.392 39.0447C635.131 43.1996 636 47.9048 636 53.1605ZM614.178 56.5696C614.213 54.652 614.001 52.8054 613.539 51.0298C613.113 49.2543 612.386 47.6918 611.357 46.3423C610.364 44.9574 609.086 43.8565 607.525 43.0398C605.964 42.1875 604.101 41.7259 601.936 41.6548L599.807 74.6804C601.936 74.3608 603.87 73.6683 605.609 72.603C607.347 71.5021 608.838 70.1705 610.08 68.608C611.357 67.0099 612.333 65.2521 613.007 63.3345C613.717 61.3814 614.107 59.375 614.178 57.3153V56.5696Z" fill="#555555"/>
<path d="M571.015 65.0923L568.78 88.7429L523.965 92.2585C524.178 79.8651 524.408 67.5426 524.657 55.2912C524.94 43.0398 525.278 30.7173 525.668 18.3239H553.345C552.528 26.1009 551.748 33.8778 551.003 41.6548C550.258 49.3963 549.725 57.2088 549.406 65.0923C551.074 65.1634 552.724 65.1989 554.356 65.1989C555.988 65.1989 557.638 65.1989 559.306 65.1989C561.293 65.1989 563.244 65.1811 565.16 65.1456C567.076 65.1101 569.028 65.0923 571.015 65.0923Z" fill="#555555"/>
<path d="M518.325 44.1051C518.325 46.875 518.077 49.3963 517.58 51.669C517.119 53.9062 516.373 55.9659 515.344 57.848C514.315 59.7301 512.985 61.4702 511.353 63.0682C509.72 64.6662 507.751 66.1932 505.445 67.6491L518.112 90.2344L494.161 94.9219L485.965 72.2301L479.365 72.4432L478.407 94.6023H455.52C455.698 86.5057 455.857 78.4446 455.999 70.419C456.177 62.3935 456.372 54.3324 456.585 46.2358C456.656 42.152 456.727 38.1037 456.798 34.0909C456.869 30.0781 457.01 26.0298 457.223 21.946C459.707 21.0227 462.155 20.2592 464.568 19.6555C466.981 19.0518 469.394 18.5902 471.807 18.2706C474.255 17.9155 476.721 17.6847 479.205 17.5781C481.724 17.4361 484.297 17.3651 486.923 17.3651C490.968 17.3651 494.871 17.9332 498.632 19.0696C502.429 20.1705 505.782 21.8395 508.691 24.0767C511.601 26.3139 513.925 29.1016 515.664 32.4396C517.438 35.7777 518.325 39.6662 518.325 44.1051ZM494.48 45.8097C494.48 44.3182 494.268 42.951 493.842 41.7081C493.451 40.4652 492.848 39.3999 492.032 38.5121C491.252 37.5888 490.258 36.8786 489.052 36.3814C487.881 35.8487 486.497 35.5824 484.9 35.5824C484.19 35.5824 483.499 35.6357 482.824 35.7422C482.15 35.8132 481.494 35.9375 480.855 36.1151L480.003 55.9304H481.281C482.807 55.9304 484.35 55.7351 485.911 55.3445C487.508 54.9538 488.927 54.3501 490.169 53.5334C491.447 52.7166 492.476 51.669 493.256 50.3906C494.072 49.1122 494.48 47.5852 494.48 45.8097Z" fill="#555555"/>
<path d="M450.04 57.848C450.04 61.0795 449.667 64.2045 448.922 67.223C448.177 70.206 447.095 73.0114 445.676 75.6392C444.292 78.267 442.589 80.6818 440.566 82.8835C438.579 85.0497 436.326 86.9141 433.807 88.4766C431.323 90.0391 428.608 91.2642 425.663 92.152C422.718 93.0043 419.596 93.4304 416.296 93.4304C413.102 93.4304 410.051 93.022 407.141 92.2053C404.267 91.3885 401.57 90.2521 399.051 88.7962C396.532 87.3047 394.243 85.5291 392.185 83.4695C390.162 81.3743 388.424 79.0661 386.969 76.5447C385.55 73.9879 384.432 71.2536 383.616 68.3416C382.835 65.4297 382.445 62.3935 382.445 59.233C382.445 56.1435 382.817 53.125 383.563 50.1776C384.308 47.1946 385.372 44.3892 386.756 41.7614C388.175 39.1335 389.879 36.7187 391.866 34.517C393.853 32.3153 396.07 30.4155 398.519 28.8175C401.002 27.2195 403.681 25.9766 406.556 25.0888C409.43 24.201 412.463 23.7571 415.657 23.7571C420.802 23.7571 425.486 24.5561 429.708 26.1541C433.966 27.7521 437.585 30.0426 440.566 33.0256C443.582 35.973 445.906 39.5597 447.538 43.7855C449.206 47.9759 450.04 52.6634 450.04 57.848ZM426.408 59.233C426.408 57.706 426.178 56.2322 425.716 54.8118C425.291 53.3558 424.652 52.0774 423.8 50.9766C422.949 49.8402 421.884 48.9347 420.607 48.2599C419.365 47.5497 417.928 47.1946 416.296 47.1946C414.628 47.1946 413.138 47.4964 411.825 48.1001C410.512 48.7038 409.376 49.5384 408.418 50.6037C407.496 51.6335 406.786 52.8587 406.289 54.2791C405.793 55.6641 405.544 57.1378 405.544 58.7003C405.544 60.1918 405.757 61.6832 406.183 63.1747C406.609 64.6662 407.247 66.0156 408.099 67.223C408.951 68.4304 409.997 69.407 411.239 70.1527C412.517 70.8984 413.989 71.2713 415.657 71.2713C417.325 71.2713 418.815 70.9517 420.128 70.3125C421.476 69.6378 422.612 68.75 423.534 67.6491C424.457 66.5128 425.166 65.2166 425.663 63.7607C426.16 62.3047 426.408 60.7955 426.408 59.233Z" fill="#555555"/>
<path d="M381.116 21.5199L368.662 95.348L338.43 95.9872L331.937 57.7415L325.444 93.2173L295.212 94.2827L282.651 21.5199L309.051 19.1761L314.373 63.3878L321.505 19.1761H342.263L350.566 63.9205L354.824 19.1761L381.116 21.5199Z" fill="#555555"/>
<path d="M279.992 19.2827L279.46 41.8679L263.599 42.5071L259.554 93.0043L237.093 94.1761L237.2 43.679L221.339 44.5312L221.977 19.3892L279.992 19.2827Z" fill="#555555"/>
<path d="M217.828 20.4545L211.973 93.0043L189.512 94.1761V21.946L217.828 20.4545Z" fill="#555555"/>
<path d="M183.181 44.1051C183.181 46.875 182.933 49.3963 182.436 51.669C181.975 53.9062 181.229 55.9659 180.2 57.848C179.171 59.7301 177.841 61.4702 176.209 63.0682C174.576 64.6662 172.607 66.1932 170.301 67.6491L182.968 90.2344L159.017 94.9219L150.82 72.2301L144.221 72.4432L143.263 94.6023H120.376C120.553 86.5057 120.713 78.4446 120.855 70.419C121.032 62.3935 121.228 54.3324 121.441 46.2358C121.512 42.152 121.582 38.1037 121.653 34.0909C121.724 30.0781 121.866 26.0298 122.079 21.946C124.563 21.0227 127.011 20.2592 129.424 19.6555C131.837 19.0518 134.25 18.5902 136.663 18.2706C139.111 17.9155 141.577 17.6847 144.061 17.5781C146.58 17.4361 149.153 17.3651 151.779 17.3651C155.824 17.3651 159.727 17.9332 163.488 19.0696C167.285 20.1705 170.638 21.8395 173.547 24.0767C176.457 26.3139 178.781 29.1016 180.52 32.4396C182.294 35.7777 183.181 39.6662 183.181 44.1051ZM159.336 45.8097C159.336 44.3182 159.123 42.951 158.698 41.7081C158.307 40.4652 157.704 39.3999 156.888 38.5121C156.107 37.5888 155.114 36.8786 153.907 36.3814C152.737 35.8487 151.353 35.5824 149.756 35.5824C149.046 35.5824 148.354 35.6357 147.68 35.7422C147.006 35.8132 146.35 35.9375 145.711 36.1151L144.859 55.9304H146.137C147.662 55.9304 149.206 55.7351 150.767 55.3445C152.364 54.9538 153.783 54.3501 155.025 53.5334C156.303 52.7166 157.332 51.669 158.112 50.3906C158.928 49.1122 159.336 47.5852 159.336 45.8097Z" fill="#555555"/>
<path fill-rule="evenodd" clip-rule="evenodd" d="M49.9601 81.8182C67.5187 81.8182 81.7528 67.5727 81.7528 50C81.7528 32.4273 67.5187 18.1818 49.9601 18.1818C32.4014 18.1818 18.1673 32.4273 18.1673 50C18.1673 67.5727 32.4014 81.8182 49.9601 81.8182ZM49.9601 100C77.5522 100 99.9201 77.6142 99.9201 50C99.9201 22.3858 77.5522 0 49.9601 0C22.3679 0 0 22.3858 0 50C0 77.6142 22.3679 100 49.9601 100Z" fill="#FFCC16"/>
<path d="M45.4182 40.9091C45.4182 43.4195 43.3848 45.4545 40.8764 45.4545C38.368 45.4545 36.3346 43.4195 36.3346 40.9091C36.3346 38.3987 38.368 36.3636 40.8764 36.3636C43.3848 36.3636 45.4182 38.3987 45.4182 40.9091Z" fill="#FFCC16"/>
<path d="M68.1274 40.9091C68.1274 43.4195 66.0939 45.4545 63.5855 45.4545C61.0771 45.4545 59.0437 43.4195 59.0437 40.9091C59.0437 38.3987 61.0771 36.3636 63.5855 36.3636C66.0939 36.3636 68.1274 38.3987 68.1274 40.9091Z" fill="#FFCC16"/>
<path fill-rule="evenodd" clip-rule="evenodd" d="M49.9601 63.6364V40.9091H54.5019V63.6364H49.9601Z" fill="#FFCC16"/>
<path fill-rule="evenodd" clip-rule="evenodd" d="M40.8764 59.0909H49.9601V63.6364H40.8764V59.0909Z" fill="#FFCC16"/>
</svg>
